<mxfile host="app.diagrams.net" modified="2023-01-05T06:09:36.689Z" agent="5.0 (Windows NT 10.0; Win64; x64) AppleWebKit/537.36 (KHTML, like Gecko) Chrome/108.0.0.0 Safari/537.36" version="20.8.1" etag="5xfE8k_QqX0jT98cggNw" type="github">
  <diagram id="hFcypDkv1yxKYLGdelCU" name="第 1 页">
    <mxGraphModel dx="1615" dy="894" grid="1" gridSize="10" guides="1" tooltips="1" connect="1" arrows="1" fold="1" page="1" pageScale="1" pageWidth="827" pageHeight="1169" math="0" shadow="0">
      <root>
        <mxCell id="0" />
        <mxCell id="1" parent="0" />
        <mxCell id="XSCZwYgmgKanuWmm07Oy-10" value="" style="edgeStyle=orthogonalEdgeStyle;rounded=0;orthogonalLoop=1;jettySize=auto;html=1;" edge="1" parent="1" source="XSCZwYgmgKanuWmm07Oy-1" target="XSCZwYgmgKanuWmm07Oy-2">
          <mxGeometry relative="1" as="geometry" />
        </mxCell>
        <mxCell id="XSCZwYgmgKanuWmm07Oy-11" value="处理拆除充电桩" style="edgeLabel;html=1;align=center;verticalAlign=middle;resizable=0;points=[];" vertex="1" connectable="0" parent="XSCZwYgmgKanuWmm07Oy-10">
          <mxGeometry x="-0.3431" y="-3" relative="1" as="geometry">
            <mxPoint x="14" y="-8" as="offset" />
          </mxGeometry>
        </mxCell>
        <mxCell id="XSCZwYgmgKanuWmm07Oy-12" style="edgeStyle=orthogonalEdgeStyle;rounded=0;orthogonalLoop=1;jettySize=auto;html=1;exitX=1;exitY=0.75;exitDx=0;exitDy=0;entryX=0;entryY=1;entryDx=0;entryDy=0;" edge="1" parent="1" source="XSCZwYgmgKanuWmm07Oy-1" target="XSCZwYgmgKanuWmm07Oy-2">
          <mxGeometry relative="1" as="geometry" />
        </mxCell>
        <mxCell id="XSCZwYgmgKanuWmm07Oy-14" value="处理维护充电桩" style="edgeLabel;html=1;align=center;verticalAlign=middle;resizable=0;points=[];" vertex="1" connectable="0" parent="XSCZwYgmgKanuWmm07Oy-12">
          <mxGeometry x="0.3329" y="2" relative="1" as="geometry">
            <mxPoint y="11" as="offset" />
          </mxGeometry>
        </mxCell>
        <mxCell id="XSCZwYgmgKanuWmm07Oy-15" style="edgeStyle=orthogonalEdgeStyle;rounded=0;orthogonalLoop=1;jettySize=auto;html=1;exitX=1;exitY=0.25;exitDx=0;exitDy=0;entryX=0;entryY=0;entryDx=0;entryDy=0;" edge="1" parent="1" source="XSCZwYgmgKanuWmm07Oy-1" target="XSCZwYgmgKanuWmm07Oy-2">
          <mxGeometry relative="1" as="geometry" />
        </mxCell>
        <mxCell id="XSCZwYgmgKanuWmm07Oy-16" value="处理安装充电桩" style="edgeLabel;html=1;align=center;verticalAlign=middle;resizable=0;points=[];" vertex="1" connectable="0" parent="XSCZwYgmgKanuWmm07Oy-15">
          <mxGeometry x="0.0986" y="2" relative="1" as="geometry">
            <mxPoint y="-7" as="offset" />
          </mxGeometry>
        </mxCell>
        <mxCell id="XSCZwYgmgKanuWmm07Oy-27" style="edgeStyle=orthogonalEdgeStyle;rounded=0;orthogonalLoop=1;jettySize=auto;html=1;exitX=0.75;exitY=1;exitDx=0;exitDy=0;entryX=0.249;entryY=0.946;entryDx=0;entryDy=0;entryPerimeter=0;" edge="1" parent="1" source="XSCZwYgmgKanuWmm07Oy-1" target="XSCZwYgmgKanuWmm07Oy-2">
          <mxGeometry relative="1" as="geometry">
            <Array as="points">
              <mxPoint x="160" y="470" />
              <mxPoint x="361" y="470" />
            </Array>
          </mxGeometry>
        </mxCell>
        <mxCell id="XSCZwYgmgKanuWmm07Oy-28" value="统计安放的充电桩" style="edgeLabel;html=1;align=center;verticalAlign=middle;resizable=0;points=[];" vertex="1" connectable="0" parent="XSCZwYgmgKanuWmm07Oy-27">
          <mxGeometry x="0.3702" y="3" relative="1" as="geometry">
            <mxPoint x="-33" as="offset" />
          </mxGeometry>
        </mxCell>
        <mxCell id="XSCZwYgmgKanuWmm07Oy-1" value="管理员" style="rounded=0;whiteSpace=wrap;html=1;" vertex="1" parent="1">
          <mxGeometry x="70" y="345" width="120" height="60" as="geometry" />
        </mxCell>
        <mxCell id="XSCZwYgmgKanuWmm07Oy-2" value="新能源充电桩管理平台" style="ellipse;whiteSpace=wrap;html=1;" vertex="1" parent="1">
          <mxGeometry x="309" y="310" width="210" height="130" as="geometry" />
        </mxCell>
        <mxCell id="XSCZwYgmgKanuWmm07Oy-5" value="维护" style="edgeStyle=orthogonalEdgeStyle;rounded=0;orthogonalLoop=1;jettySize=auto;html=1;" edge="1" parent="1" source="XSCZwYgmgKanuWmm07Oy-3" target="XSCZwYgmgKanuWmm07Oy-2">
          <mxGeometry relative="1" as="geometry" />
        </mxCell>
        <mxCell id="XSCZwYgmgKanuWmm07Oy-7" value="安装" style="edgeStyle=orthogonalEdgeStyle;rounded=0;orthogonalLoop=1;jettySize=auto;html=1;exitX=0.75;exitY=1;exitDx=0;exitDy=0;entryX=0.624;entryY=0;entryDx=0;entryDy=0;entryPerimeter=0;" edge="1" parent="1" source="XSCZwYgmgKanuWmm07Oy-3" target="XSCZwYgmgKanuWmm07Oy-2">
          <mxGeometry relative="1" as="geometry" />
        </mxCell>
        <mxCell id="XSCZwYgmgKanuWmm07Oy-9" value="拆除" style="edgeStyle=orthogonalEdgeStyle;rounded=0;orthogonalLoop=1;jettySize=auto;html=1;exitX=0.25;exitY=1;exitDx=0;exitDy=0;entryX=0.386;entryY=0.017;entryDx=0;entryDy=0;entryPerimeter=0;" edge="1" parent="1" source="XSCZwYgmgKanuWmm07Oy-3" target="XSCZwYgmgKanuWmm07Oy-2">
          <mxGeometry relative="1" as="geometry" />
        </mxCell>
        <mxCell id="XSCZwYgmgKanuWmm07Oy-3" value="技术人员" style="rounded=0;whiteSpace=wrap;html=1;" vertex="1" parent="1">
          <mxGeometry x="354" y="200" width="120" height="60" as="geometry" />
        </mxCell>
        <mxCell id="XSCZwYgmgKanuWmm07Oy-29" style="edgeStyle=orthogonalEdgeStyle;rounded=0;orthogonalLoop=1;jettySize=auto;html=1;exitX=0;exitY=0.5;exitDx=0;exitDy=0;entryX=1;entryY=0.5;entryDx=0;entryDy=0;" edge="1" parent="1" source="XSCZwYgmgKanuWmm07Oy-4" target="XSCZwYgmgKanuWmm07Oy-2">
          <mxGeometry relative="1" as="geometry" />
        </mxCell>
        <mxCell id="XSCZwYgmgKanuWmm07Oy-30" value="充电" style="edgeLabel;html=1;align=center;verticalAlign=middle;resizable=0;points=[];" vertex="1" connectable="0" parent="XSCZwYgmgKanuWmm07Oy-29">
          <mxGeometry x="-0.2198" y="1" relative="1" as="geometry">
            <mxPoint as="offset" />
          </mxGeometry>
        </mxCell>
        <mxCell id="XSCZwYgmgKanuWmm07Oy-33" style="edgeStyle=orthogonalEdgeStyle;rounded=0;orthogonalLoop=1;jettySize=auto;html=1;exitX=0;exitY=0.75;exitDx=0;exitDy=0;entryX=0.972;entryY=0.694;entryDx=0;entryDy=0;entryPerimeter=0;" edge="1" parent="1" source="XSCZwYgmgKanuWmm07Oy-4" target="XSCZwYgmgKanuWmm07Oy-2">
          <mxGeometry relative="1" as="geometry" />
        </mxCell>
        <mxCell id="XSCZwYgmgKanuWmm07Oy-37" value="会员卡充值" style="edgeLabel;html=1;align=center;verticalAlign=middle;resizable=0;points=[];" vertex="1" connectable="0" parent="XSCZwYgmgKanuWmm07Oy-33">
          <mxGeometry x="0.3627" y="2" relative="1" as="geometry">
            <mxPoint as="offset" />
          </mxGeometry>
        </mxCell>
        <mxCell id="XSCZwYgmgKanuWmm07Oy-34" style="edgeStyle=orthogonalEdgeStyle;rounded=0;orthogonalLoop=1;jettySize=auto;html=1;exitX=0;exitY=0.25;exitDx=0;exitDy=0;entryX=0.961;entryY=0.288;entryDx=0;entryDy=0;entryPerimeter=0;" edge="1" parent="1" source="XSCZwYgmgKanuWmm07Oy-4" target="XSCZwYgmgKanuWmm07Oy-2">
          <mxGeometry relative="1" as="geometry" />
        </mxCell>
        <mxCell id="XSCZwYgmgKanuWmm07Oy-35" value="办理会员卡" style="edgeLabel;html=1;align=center;verticalAlign=middle;resizable=0;points=[];" vertex="1" connectable="0" parent="XSCZwYgmgKanuWmm07Oy-34">
          <mxGeometry x="0.2808" y="-1" relative="1" as="geometry">
            <mxPoint as="offset" />
          </mxGeometry>
        </mxCell>
        <mxCell id="XSCZwYgmgKanuWmm07Oy-4" value="会员" style="rounded=0;whiteSpace=wrap;html=1;" vertex="1" parent="1">
          <mxGeometry x="640" y="345" width="120" height="60" as="geometry" />
        </mxCell>
        <mxCell id="XSCZwYgmgKanuWmm07Oy-20" value="" style="endArrow=classic;html=1;rounded=0;exitX=0.75;exitY=0;exitDx=0;exitDy=0;" edge="1" parent="1" source="XSCZwYgmgKanuWmm07Oy-1">
          <mxGeometry width="50" height="50" relative="1" as="geometry">
            <mxPoint x="390" y="460" as="sourcePoint" />
            <mxPoint x="350" y="320" as="targetPoint" />
            <Array as="points">
              <mxPoint x="160" y="210" />
              <mxPoint x="250" y="210" />
              <mxPoint x="350" y="210" />
              <mxPoint x="350" y="260" />
            </Array>
          </mxGeometry>
        </mxCell>
        <mxCell id="XSCZwYgmgKanuWmm07Oy-21" value="注册登录" style="edgeLabel;html=1;align=center;verticalAlign=middle;resizable=0;points=[];" vertex="1" connectable="0" parent="XSCZwYgmgKanuWmm07Oy-20">
          <mxGeometry x="0.2287" y="-3" relative="1" as="geometry">
            <mxPoint x="-42" as="offset" />
          </mxGeometry>
        </mxCell>
        <mxCell id="XSCZwYgmgKanuWmm07Oy-22" value="" style="endArrow=classic;html=1;rounded=0;exitX=0.5;exitY=0;exitDx=0;exitDy=0;entryX=0.317;entryY=0.023;entryDx=0;entryDy=0;entryPerimeter=0;" edge="1" parent="1" source="XSCZwYgmgKanuWmm07Oy-1" target="XSCZwYgmgKanuWmm07Oy-2">
          <mxGeometry width="50" height="50" relative="1" as="geometry">
            <mxPoint x="390" y="460" as="sourcePoint" />
            <mxPoint x="440" y="410" as="targetPoint" />
            <Array as="points">
              <mxPoint x="130" y="270" />
              <mxPoint x="250" y="270" />
              <mxPoint x="376" y="270" />
            </Array>
          </mxGeometry>
        </mxCell>
        <mxCell id="XSCZwYgmgKanuWmm07Oy-25" value="充电桩选址" style="edgeLabel;html=1;align=center;verticalAlign=middle;resizable=0;points=[];" vertex="1" connectable="0" parent="XSCZwYgmgKanuWmm07Oy-22">
          <mxGeometry x="-0.1275" y="-1" relative="1" as="geometry">
            <mxPoint x="26" as="offset" />
          </mxGeometry>
        </mxCell>
        <mxCell id="XSCZwYgmgKanuWmm07Oy-38" value="充电桩属性表" style="rounded=0;whiteSpace=wrap;html=1;" vertex="1" parent="1">
          <mxGeometry x="200" y="540" width="120" height="60" as="geometry" />
        </mxCell>
        <mxCell id="XSCZwYgmgKanuWmm07Oy-39" value="充电桩仓库表" style="rounded=0;whiteSpace=wrap;html=1;" vertex="1" parent="1">
          <mxGeometry x="200" y="620" width="120" height="60" as="geometry" />
        </mxCell>
        <mxCell id="XSCZwYgmgKanuWmm07Oy-40" value="区域属性表" style="rounded=0;whiteSpace=wrap;html=1;" vertex="1" parent="1">
          <mxGeometry x="200" y="700" width="120" height="60" as="geometry" />
        </mxCell>
        <mxCell id="XSCZwYgmgKanuWmm07Oy-41" value="用户使用表" style="rounded=0;whiteSpace=wrap;html=1;" vertex="1" parent="1">
          <mxGeometry x="200" y="780" width="120" height="60" as="geometry" />
        </mxCell>
        <mxCell id="XSCZwYgmgKanuWmm07Oy-42" value="会员卡属性表" style="rounded=0;whiteSpace=wrap;html=1;" vertex="1" parent="1">
          <mxGeometry x="200" y="860" width="120" height="60" as="geometry" />
        </mxCell>
        <mxCell id="XSCZwYgmgKanuWmm07Oy-43" value="管理员平台用户属性表" style="rounded=0;whiteSpace=wrap;html=1;" vertex="1" parent="1">
          <mxGeometry x="200" y="940" width="120" height="60" as="geometry" />
        </mxCell>
        <mxCell id="XSCZwYgmgKanuWmm07Oy-44" value="充电桩投放记录表" style="rounded=0;whiteSpace=wrap;html=1;" vertex="1" parent="1">
          <mxGeometry x="540" y="540" width="120" height="60" as="geometry" />
        </mxCell>
        <mxCell id="XSCZwYgmgKanuWmm07Oy-45" value="技术人员属性表" style="rounded=0;whiteSpace=wrap;html=1;" vertex="1" parent="1">
          <mxGeometry x="540" y="620" width="120" height="60" as="geometry" />
        </mxCell>
        <mxCell id="XSCZwYgmgKanuWmm07Oy-46" value="充电桩拆除记录表" style="rounded=0;whiteSpace=wrap;html=1;" vertex="1" parent="1">
          <mxGeometry x="540" y="700" width="120" height="60" as="geometry" />
        </mxCell>
        <mxCell id="XSCZwYgmgKanuWmm07Oy-47" value="充电桩维护记录表" style="rounded=0;whiteSpace=wrap;html=1;" vertex="1" parent="1">
          <mxGeometry x="540" y="780" width="120" height="60" as="geometry" />
        </mxCell>
        <mxCell id="XSCZwYgmgKanuWmm07Oy-48" value="充电记录表" style="rounded=0;whiteSpace=wrap;html=1;" vertex="1" parent="1">
          <mxGeometry x="540" y="860" width="120" height="60" as="geometry" />
        </mxCell>
        <mxCell id="XSCZwYgmgKanuWmm07Oy-49" value="会员卡充值记录表" style="rounded=0;whiteSpace=wrap;html=1;" vertex="1" parent="1">
          <mxGeometry x="540" y="940" width="120" height="60" as="geometry" />
        </mxCell>
        <mxCell id="XSCZwYgmgKanuWmm07Oy-50" value="" style="endArrow=classic;html=1;rounded=0;entryX=1;entryY=0.5;entryDx=0;entryDy=0;exitX=0.294;exitY=0.983;exitDx=0;exitDy=0;exitPerimeter=0;" edge="1" parent="1" source="XSCZwYgmgKanuWmm07Oy-2" target="XSCZwYgmgKanuWmm07Oy-38">
          <mxGeometry width="50" height="50" relative="1" as="geometry">
            <mxPoint x="380" y="440" as="sourcePoint" />
            <mxPoint x="440" y="670" as="targetPoint" />
            <Array as="points">
              <mxPoint x="370" y="570" />
            </Array>
          </mxGeometry>
        </mxCell>
        <mxCell id="XSCZwYgmgKanuWmm07Oy-51" value="" style="endArrow=classic;html=1;rounded=0;entryX=1;entryY=0.5;entryDx=0;entryDy=0;" edge="1" parent="1" target="XSCZwYgmgKanuWmm07Oy-39">
          <mxGeometry width="50" height="50" relative="1" as="geometry">
            <mxPoint x="380" y="440" as="sourcePoint" />
            <mxPoint x="440" y="540" as="targetPoint" />
            <Array as="points">
              <mxPoint x="380" y="650" />
            </Array>
          </mxGeometry>
        </mxCell>
        <mxCell id="XSCZwYgmgKanuWmm07Oy-52" value="" style="endArrow=classic;html=1;rounded=0;entryX=1;entryY=0.5;entryDx=0;entryDy=0;" edge="1" parent="1" target="XSCZwYgmgKanuWmm07Oy-40">
          <mxGeometry width="50" height="50" relative="1" as="geometry">
            <mxPoint x="390" y="440" as="sourcePoint" />
            <mxPoint x="440" y="540" as="targetPoint" />
            <Array as="points">
              <mxPoint x="390" y="730" />
            </Array>
          </mxGeometry>
        </mxCell>
        <mxCell id="XSCZwYgmgKanuWmm07Oy-53" value="" style="endArrow=classic;html=1;rounded=0;entryX=1;entryY=0.5;entryDx=0;entryDy=0;" edge="1" parent="1" target="XSCZwYgmgKanuWmm07Oy-41">
          <mxGeometry width="50" height="50" relative="1" as="geometry">
            <mxPoint x="400" y="440" as="sourcePoint" />
            <mxPoint x="440" y="670" as="targetPoint" />
            <Array as="points">
              <mxPoint x="400" y="810" />
            </Array>
          </mxGeometry>
        </mxCell>
        <mxCell id="XSCZwYgmgKanuWmm07Oy-54" value="" style="endArrow=classic;html=1;rounded=0;entryX=1;entryY=0.5;entryDx=0;entryDy=0;" edge="1" parent="1" target="XSCZwYgmgKanuWmm07Oy-42">
          <mxGeometry width="50" height="50" relative="1" as="geometry">
            <mxPoint x="410" y="440" as="sourcePoint" />
            <mxPoint x="440" y="670" as="targetPoint" />
            <Array as="points">
              <mxPoint x="410" y="560" />
              <mxPoint x="410" y="670" />
              <mxPoint x="410" y="890" />
            </Array>
          </mxGeometry>
        </mxCell>
        <mxCell id="XSCZwYgmgKanuWmm07Oy-55" value="" style="endArrow=classic;html=1;rounded=0;entryX=1;entryY=0.5;entryDx=0;entryDy=0;" edge="1" parent="1" target="XSCZwYgmgKanuWmm07Oy-43">
          <mxGeometry width="50" height="50" relative="1" as="geometry">
            <mxPoint x="420" y="440" as="sourcePoint" />
            <mxPoint x="440" y="670" as="targetPoint" />
            <Array as="points">
              <mxPoint x="420" y="700" />
              <mxPoint x="420" y="970" />
            </Array>
          </mxGeometry>
        </mxCell>
        <mxCell id="XSCZwYgmgKanuWmm07Oy-62" value="" style="endArrow=classic;html=1;rounded=0;entryX=0;entryY=0.5;entryDx=0;entryDy=0;exitX=0.572;exitY=1.008;exitDx=0;exitDy=0;exitPerimeter=0;" edge="1" parent="1" source="XSCZwYgmgKanuWmm07Oy-2" target="XSCZwYgmgKanuWmm07Oy-49">
          <mxGeometry width="50" height="50" relative="1" as="geometry">
            <mxPoint x="390" y="720" as="sourcePoint" />
            <mxPoint x="440" y="670" as="targetPoint" />
            <Array as="points">
              <mxPoint x="429" y="970" />
            </Array>
          </mxGeometry>
        </mxCell>
        <mxCell id="XSCZwYgmgKanuWmm07Oy-63" value="" style="endArrow=classic;html=1;rounded=0;entryX=0;entryY=0.5;entryDx=0;entryDy=0;" edge="1" parent="1" target="XSCZwYgmgKanuWmm07Oy-48">
          <mxGeometry width="50" height="50" relative="1" as="geometry">
            <mxPoint x="440" y="440" as="sourcePoint" />
            <mxPoint x="440" y="670" as="targetPoint" />
            <Array as="points">
              <mxPoint x="440" y="890" />
            </Array>
          </mxGeometry>
        </mxCell>
        <mxCell id="XSCZwYgmgKanuWmm07Oy-64" value="" style="endArrow=classic;html=1;rounded=0;entryX=0;entryY=0.5;entryDx=0;entryDy=0;" edge="1" parent="1" target="XSCZwYgmgKanuWmm07Oy-47">
          <mxGeometry width="50" height="50" relative="1" as="geometry">
            <mxPoint x="450" y="440" as="sourcePoint" />
            <mxPoint x="440" y="670" as="targetPoint" />
            <Array as="points">
              <mxPoint x="452" y="810" />
            </Array>
          </mxGeometry>
        </mxCell>
        <mxCell id="XSCZwYgmgKanuWmm07Oy-65" value="" style="endArrow=classic;html=1;rounded=0;entryX=0;entryY=0.5;entryDx=0;entryDy=0;exitX=0.713;exitY=0.952;exitDx=0;exitDy=0;exitPerimeter=0;" edge="1" parent="1" source="XSCZwYgmgKanuWmm07Oy-2" target="XSCZwYgmgKanuWmm07Oy-46">
          <mxGeometry width="50" height="50" relative="1" as="geometry">
            <mxPoint x="390" y="720" as="sourcePoint" />
            <mxPoint x="440" y="670" as="targetPoint" />
            <Array as="points">
              <mxPoint x="460" y="730" />
            </Array>
          </mxGeometry>
        </mxCell>
        <mxCell id="XSCZwYgmgKanuWmm07Oy-66" value="" style="endArrow=classic;html=1;rounded=0;entryX=0;entryY=0.5;entryDx=0;entryDy=0;" edge="1" parent="1" target="XSCZwYgmgKanuWmm07Oy-45">
          <mxGeometry width="50" height="50" relative="1" as="geometry">
            <mxPoint x="470" y="430" as="sourcePoint" />
            <mxPoint x="440" y="670" as="targetPoint" />
            <Array as="points">
              <mxPoint x="470" y="650" />
            </Array>
          </mxGeometry>
        </mxCell>
        <mxCell id="XSCZwYgmgKanuWmm07Oy-67" value="" style="endArrow=classic;html=1;rounded=0;entryX=0;entryY=0.5;entryDx=0;entryDy=0;" edge="1" parent="1" target="XSCZwYgmgKanuWmm07Oy-44">
          <mxGeometry width="50" height="50" relative="1" as="geometry">
            <mxPoint x="479" y="430" as="sourcePoint" />
            <mxPoint x="440" y="670" as="targetPoint" />
            <Array as="points">
              <mxPoint x="479" y="570" />
            </Array>
          </mxGeometry>
        </mxCell>
      </root>
    </mxGraphModel>
  </diagram>
</mxfile>
